<?xml version="1.0" encoding="UTF-8"?>
<svg version="1.1"
  xmlns="http://www.w3.org/2000/svg" width="1024" height="1024">
  <path d="M0 0 C1.17929474 -0.00679667 1.17929474 -0.00679667 2.38241363 -0.01373065 C5.00766796 -0.02635556 7.63271433 -0.02475551 10.25799561 -0.02310181 C12.14411179 -0.0290883 14.03022553 -0.03589413 15.91633606 -0.04345703 C21.0342707 -0.06111322 26.15213844 -0.06581229 31.27010059 -0.0670886 C34.46998857 -0.06851113 37.66985959 -0.07278269 40.86974335 -0.07808304 C52.0400246 -0.09658301 63.21025814 -0.10475381 74.3805542 -0.10317993 C84.78132887 -0.10197898 95.18189587 -0.12307238 105.582618 -0.15466726 C114.52126007 -0.18084986 123.4598344 -0.19154637 132.39851451 -0.19026911 C137.73308918 -0.18976001 143.06747932 -0.19541472 148.40201569 -0.21662521 C153.422107 -0.2360406 158.4418384 -0.23610943 163.46194267 -0.22159195 C165.29929317 -0.21950676 167.13666638 -0.22418738 168.97397804 -0.23631287 C185.00496011 -0.33521629 196.31000898 2.9096924 208.26873779 14.01742554 C226.64985327 33.13085637 219.01873779 64.06401514 219.01873779 87.26742554 C319.66873779 87.26742554 420.31873779 87.26742554 524.01873779 87.26742554 C524.01873779 115.97742554 524.01873779 144.68742554 524.01873779 174.26742554 C423.36873779 174.26742554 322.71873779 174.26742554 219.01873779 174.26742554 C219.77294144 235.9290594 219.77294144 235.9290594 244.51873779 282.23617554 C248.70128611 289.40625837 252.73230389 296.65898961 256.76873779 303.91195679 C260.76838438 311.08096618 264.86236751 318.18826321 269.01873779 325.26742554 C274.32578338 334.30993405 279.50074055 343.41751863 284.59735107 352.58016968 C287.84410765 358.40942807 291.12610662 364.2159957 294.45623779 369.99789429 C294.82701447 370.64249603 295.19779114 371.28709778 295.57980347 371.95123291 C297.39511036 375.10629919 299.21492946 378.25862404 301.04168701 381.40707397 C301.69153564 382.53532593 302.34138428 383.66357788 303.01092529 384.82601929 C303.59213135 385.82947388 304.1733374 386.83292847 304.77215576 387.86679077 C306.01873779 390.26742554 306.01873779 390.26742554 306.01873779 392.26742554 C305.41513428 392.33735718 304.81153076 392.40728882 304.18963623 392.4793396 C283.62924688 394.91711356 266.037832 399.24304612 250.01873779 413.26742554 C249.36647217 413.8255896 248.71420654 414.38375366 248.04217529 414.95883179 C241.40952124 421.07619997 236.82380928 428.70534582 232.01873779 436.26742554 C229.40161493 433.90471159 227.8455203 431.43306701 226.15545654 428.34945679 C225.60567139 427.35494507 225.05588623 426.36043335 224.48944092 425.33578491 C223.90098389 424.26135132 223.31252686 423.18691772 222.70623779 422.07992554 C221.44113026 419.79376145 220.1741558 417.50862962 218.90545654 415.22445679 C218.58213348 414.64205231 218.25881042 414.05964783 217.9256897 413.45959473 C214.70790196 407.67884302 211.37265608 401.96989321 208.01873779 396.26742554 C202.64520492 387.11732841 197.42600314 377.89072336 192.26654053 368.61849976 C188.29058145 361.49114286 184.21709782 354.42803461 180.08123779 347.39242554 C175.10140214 338.91777249 170.26794508 330.37337163 165.51873779 321.76742554 C160.72407519 313.08097524 155.84868089 304.45224741 150.83123779 295.89242554 C150.2626001 294.92224487 149.6939624 293.95206421 149.10809326 292.95248413 C147.97860796 291.02617238 146.84905139 289.09990243 145.71942139 287.17367554 C142.84238063 282.25718211 139.98628916 277.32892877 137.14373779 272.39242554 C136.62529297 271.49991089 136.10684814 270.60739624 135.57269287 269.68783569 C135.10371582 268.87105347 134.63473877 268.05427124 134.15155029 267.21273804 C133.5311084 266.13790161 133.5311084 266.13790161 132.89813232 265.04135132 C132.01873779 263.26742554 132.01873779 263.26742554 132.01873779 261.26742554 C131.30735499 261.27111271 130.59597219 261.27479988 129.86303234 261.27859879 C112.51788501 261.3671077 95.17279538 261.43321172 77.82747173 261.47467422 C69.43924005 261.49526044 61.05115953 261.5233052 52.6630249 261.56918335 C45.34812384 261.60917232 38.0333323 261.63488697 30.71832496 261.64377952 C26.84847783 261.64897397 22.97894392 261.66109945 19.10919762 261.69034576 C15.45905776 261.71770614 11.80935704 261.7258295 8.15912437 261.71985626 C6.19667299 261.72146355 4.23426829 261.74287762 2.27194214 261.7651062 C-9.2629357 261.71194537 -18.28216143 258.93003771 -26.98126221 251.26742554 C-27.58712158 250.75437866 -28.19298096 250.24133179 -28.81719971 249.71273804 C-36.04917471 243.11237657 -41.55787666 233.3922214 -42.23853111 223.54571247 C-42.25202509 222.12816598 -42.25473562 220.71049027 -42.24868774 219.29289246 C-42.25321886 218.50740153 -42.25774997 217.72191059 -42.26241839 216.91261691 C-42.27504331 214.28969649 -42.27344325 211.66698424 -42.27178955 209.04403687 C-42.2777761 207.15954319 -42.28458193 205.27505197 -42.29214478 203.39056396 C-42.30980167 198.27669427 -42.3145001 193.16289153 -42.31577635 188.0489943 C-42.31719897 184.85110864 -42.32147074 181.65323995 -42.32677078 178.45535851 C-42.34527184 167.29040829 -42.35344152 156.12550581 -42.35186768 144.96054077 C-42.35066709 134.56773841 -42.37175309 124.17514399 -42.403355 113.78239423 C-42.42954777 104.84883203 -42.44023367 95.9153376 -42.43895686 86.98173732 C-42.438448 81.65104307 -42.44408888 76.32053356 -42.46531296 70.9898777 C-42.48474519 65.97224561 -42.48478573 60.95497348 -42.47027969 55.93732834 C-42.4681965 54.10201044 -42.47286312 52.26666971 -42.48500061 50.43139076 C-42.56928833 36.79662834 -41.38106017 25.88571583 -31.98126221 15.26742554 C-31.38313721 14.57648804 -30.78501221 13.88555054 -30.16876221 13.17367554 C-22.1282389 4.48472293 -11.82856357 -0.05041661 0 0 Z " fill="#F7941A" transform="translate(118.98126220703125,163.73257446289063)"/>
  <path d="M0 0 C0.77969853 -0.00367669 1.55939706 -0.00735338 2.36272281 -0.01114148 C4.97798216 -0.02216311 7.59320175 -0.02601961 10.20848083 -0.02983093 C12.08282599 -0.03609684 13.9571699 -0.04274375 15.83151245 -0.04974365 C21.99028154 -0.07077503 28.14905085 -0.08114662 34.30784607 -0.09111023 C36.42992096 -0.09515842 38.55199573 -0.09927536 40.67407036 -0.10346031 C50.64639915 -0.1225116 60.61872055 -0.13674159 70.59106404 -0.14507228 C82.09127396 -0.15483852 93.59129109 -0.18114236 105.09143311 -0.22157317 C113.98673048 -0.25176957 122.88197271 -0.26654459 131.77732033 -0.26985329 C137.08681827 -0.27220015 142.39611023 -0.28111305 147.70555305 -0.30631447 C152.70508599 -0.32966117 157.7042783 -0.33380189 162.7038517 -0.32355309 C164.53272385 -0.32305918 166.36161314 -0.32933637 168.1904335 -0.34310913 C183.92062714 -0.45488531 195.16275896 1.85150947 206.86643982 13.27217102 C217.73486574 24.16806558 219.55016225 36.03735393 219.58610535 50.87399292 C219.58381204 52.56962615 219.58130241 54.2652591 219.57859802 55.96089172 C219.58295026 57.76538808 219.5881351 59.56988259 219.59408569 61.37437439 C219.60743292 66.25674383 219.60805906 71.13903565 219.60552239 76.02141976 C219.60444963 80.10662618 219.60934393 84.19181708 219.61412781 88.27702016 C219.62520853 97.92051658 219.62566869 107.56397405 219.61961365 117.20747375 C219.61357645 127.13392875 219.62588176 137.0602419 219.64718372 146.9866727 C219.66483647 155.52880608 219.67079523 164.07089446 219.66754597 172.61304539 C219.6657386 177.70615351 219.66831449 182.79916048 219.68226051 187.89225197 C219.6948939 192.6849931 219.6928429 197.47751423 219.67984962 202.27025223 C219.67749614 204.02129505 219.6801741 205.77235363 219.68847275 207.52337837 C219.7486338 221.2129965 219.0578628 232.9591215 210.30393982 244.14717102 C209.12831482 245.72498352 209.12831482 245.72498352 207.92893982 247.33467102 C200.82957593 254.94113234 191.45634252 260.86971345 180.84393978 261.2813921 C179.43194439 261.29078691 178.01990624 261.29469968 176.60787964 261.29434204 C175.82818111 261.29801873 175.04848258 261.30169542 174.24515682 261.30548352 C171.62989748 261.31650515 169.01467789 261.32036165 166.3993988 261.32417297 C164.52505365 261.33043888 162.65070974 261.33708579 160.77636719 261.34408569 C154.6175981 261.36511707 148.45882879 261.37548866 142.30003357 261.38545227 C140.17795867 261.38950046 138.05588391 261.39361741 135.93380928 261.39780235 C125.96148049 261.41685364 115.98915909 261.43108363 106.0168156 261.43941432 C94.51660568 261.44918056 83.01658855 261.4754844 71.51644653 261.51591522 C62.62114916 261.54611161 53.72590693 261.56088663 44.83055931 261.56419533 C39.52106137 261.5665422 34.21176941 261.57545509 28.90232658 261.60065651 C23.90279365 261.62400321 18.90360134 261.62814393 13.90402794 261.61789513 C12.07515579 261.61740123 10.24626649 261.62367841 8.41744614 261.63745117 C-3.95963166 261.72540066 -14.48235475 261.03957976 -24.69606018 253.14717102 C-25.24648987 252.73982727 -25.79691956 252.33248352 -26.36402893 251.91279602 C-34.14252482 245.79989418 -39.37969394 237.75118181 -41.69606018 228.14717102 C-41.8686372 227.4343374 -42.04121422 226.72150377 -42.21902084 225.98706913 C-42.8025288 222.51334482 -42.84086585 219.11394368 -42.83650208 215.60333252 C-42.8394732 214.85207 -42.84244432 214.10080748 -42.84550548 213.32677943 C-42.85416507 210.81369222 -42.85569842 208.30065281 -42.85719299 205.78755188 C-42.86182322 203.98364664 -42.86684816 202.17974237 -42.87223816 200.37583923 C-42.88534712 195.47672586 -42.89180455 190.57762619 -42.89624882 185.67849803 C-42.89918284 182.61445543 -42.90328835 179.55041654 -42.90775299 176.48637581 C-42.92142589 166.89047098 -42.93109275 157.29457468 -42.93495488 147.69866079 C-42.93943091 136.63940793 -42.95695853 125.58027895 -42.98595548 114.52106375 C-43.00761398 105.96203261 -43.01766144 97.40303622 -43.018996 88.84397799 C-43.02004133 83.73738721 -43.02589068 78.63091292 -43.04381561 73.52435112 C-43.06036777 68.71526029 -43.06241729 63.90637261 -43.05367661 59.09726334 C-43.05290996 57.33976889 -43.05719937 55.5822632 -43.06713486 53.82479668 C-43.15923799 36.50614404 -40.81251924 24.28262298 -28.50856018 11.39717102 C-20.20386362 3.29668831 -11.41881947 -0.00289213 0 0 Z " fill="#F7941A" transform="translate(423.69606018066406,598.8528289794922)"/>
  <path d="M0 0 C1.1782364 -0.00679667 1.1782364 -0.00679667 2.38027555 -0.01373065 C5.00319596 -0.02635556 7.62590822 -0.0247555 10.24885559 -0.02310181 C12.13334926 -0.02908835 14.01784049 -0.03589419 15.90232849 -0.04345703 C21.01619818 -0.06111393 26.13000092 -0.06581236 31.24389815 -0.0670886 C34.44178381 -0.06851123 37.63965251 -0.072783 40.83753395 -0.07808304 C52.00248417 -0.0965841 63.16738665 -0.10475378 74.33235168 -0.10317993 C84.72515405 -0.10197934 95.11774846 -0.12306534 105.51049823 -0.15466726 C114.44406043 -0.18086002 123.37755485 -0.19154593 132.31115514 -0.19026911 C137.64184938 -0.18976025 142.9723589 -0.19540114 148.30301476 -0.21662521 C153.32064685 -0.23605744 158.33791898 -0.23609798 163.35556412 -0.22159195 C165.19088202 -0.21950876 167.02622274 -0.22417538 168.86150169 -0.23631287 C182.49626412 -0.32060059 193.40717663 0.86762757 204.02546692 10.26742554 C204.71640442 10.86555054 205.40734192 11.46367554 206.11921692 12.07992554 C213.40644549 18.82333108 218.58906497 27.94959305 219.28273582 37.99193192 C219.29623001 39.4107904 219.29894024 40.82977798 219.29289246 42.24868774 C219.29968913 43.42798249 219.29968913 43.42798249 219.3066231 44.63110137 C219.31924801 47.25635571 219.31764797 49.88140208 219.31599426 52.50668335 C219.32198076 54.39279954 219.32878659 56.27891328 219.33634949 58.1650238 C219.35400568 63.28295844 219.35870475 68.40082619 219.35998106 73.51878834 C219.36140359 76.71867631 219.36567514 79.91854733 219.37097549 83.11843109 C219.38947546 94.28871234 219.39764626 105.45894588 219.39607239 116.62924194 C219.39487144 127.03001661 219.41596484 137.43058361 219.44755971 147.83130574 C219.47374232 156.76994781 219.48443883 165.70852215 219.48316157 174.64720225 C219.48265246 179.98177692 219.48830718 185.31616706 219.50951767 190.65070343 C219.52893306 195.67079474 219.52900188 200.69052614 219.51448441 205.71063042 C219.51239922 207.54798091 219.51707984 209.38535412 219.52920532 211.22266579 C219.62810875 227.25364786 216.38320005 238.55869672 205.27546692 250.51742554 C197.56499253 257.93247945 187.63673234 261.57999936 177.04420471 261.53485107 C176.25800822 261.53938219 175.47181172 261.5439133 174.66179109 261.54858172 C172.03653675 261.56120663 169.41149038 261.55960658 166.78620911 261.55795288 C164.90009292 261.56393938 163.01397918 261.5707452 161.12786865 261.57830811 C156.00993401 261.59596429 150.89206627 261.60066337 145.77410412 261.60193968 C142.57421614 261.6033622 139.37434512 261.60763376 136.17446136 261.61293411 C125.00418012 261.63143408 113.83394657 261.63960488 102.66365051 261.63803101 C92.26287584 261.63683005 81.86230885 261.65792346 71.46158671 261.68951833 C62.52294464 261.71570093 53.58437031 261.72639745 44.6456902 261.72512019 C39.31111553 261.72461108 33.97672539 261.7302658 28.64218903 261.75147629 C23.62209771 261.77089168 18.60236631 261.7709605 13.58226204 261.75644302 C11.74491155 261.75435783 9.90753833 261.75903846 8.07022667 261.77116394 C-9.80202182 261.88142709 -9.80202182 261.88142709 -17.97453308 257.26742554 C-19.16283407 256.59958322 -19.16283407 256.59958322 -20.37514114 255.91824913 C-29.0835065 250.77907553 -36.36844726 242.75909185 -39.97453308 233.26742554 C-40.31456675 232.40097255 -40.65460041 231.53451956 -41.00493813 230.64181042 C-42.11006638 226.79574249 -42.25886565 223.25583441 -42.24195862 219.29289246 C-42.24648973 218.50740153 -42.25102084 217.72191059 -42.25568926 216.91261691 C-42.26831418 214.28969649 -42.26671412 211.66698424 -42.26506042 209.04403687 C-42.27104697 207.15954319 -42.27785281 205.27505197 -42.28541565 203.39056396 C-42.30307255 198.27669427 -42.30777097 193.16289153 -42.30904722 188.0489943 C-42.31046985 184.85110864 -42.31474162 181.65323995 -42.32004166 178.45535851 C-42.33854271 167.29040829 -42.3467124 156.12550581 -42.34513855 144.96054077 C-42.34393796 134.56773841 -42.36502396 124.17514399 -42.39662588 113.78239423 C-42.42281864 104.84883203 -42.43350455 95.9153376 -42.43222773 86.98173732 C-42.43171887 81.65104307 -42.43735976 76.32053356 -42.45858383 70.9898777 C-42.47801606 65.97224561 -42.4780566 60.95497348 -42.46355057 55.93732834 C-42.46146737 54.10201044 -42.466134 52.26666971 -42.47827148 50.43139076 C-42.56269854 36.77408915 -41.35897086 25.92125587 -31.97453308 15.26742554 C-31.46148621 14.66156616 -30.94843933 14.05570679 -30.41984558 13.43148804 C-22.49784168 4.75139764 -11.67143241 -0.04979362 0 0 Z " fill="#F8951A" transform="translate(727.9745330810547,163.73257446289063)"/>
</svg>
